{
  "accessors": [
    {
      "name": "lopatky_Circle.003-Mesh_0_positions",
      "componentType": 5126,
      "count": 760,
      "min": [
        1.3091830015182495,
        2.372230052947998,
        -4.130195140838623
      ],
      "max": [
        2.4702839851379395,
        10.647818565368652,
        4.145518779754639
      ],
      "type": "VEC3",
      "bufferView": 0,
      "byteOffset": 0
    },
    {
      "name": "lopatky_Circle.003-Mesh_0_normals",
      "componentType": 5126,
      "count": 760,
      "min": [
        -0.9999228715896606,
        -0.9880584478378296,
        -0.9880847334861755
      ],
      "max": [
        0.9999228715896606,
        0.9880584478378296,
        0.9880847334861755
      ],
      "type": "VEC3",
      "bufferView": 1,
      "byteOffset": 0
    },
    {
      "name": "lopatky_Circle.003-Mesh_0_texcoords",
      "componentType": 5126,
      "count": 760,
      "min": [
        0.0071470001712441444,
        0.010925999842584133
      ],
      "max": [
        0.9946029782295227,
        0.9795870184898376
      ],
      "type": "VEC2",
      "bufferView": 2,
      "byteOffset": 0
    },
    {
      "name": "lopatky_Circle.003-Mesh_0_indices",
      "componentType": 5123,
      "count": 1128,
      "min": [
        0
      ],
      "max": [
        759
      ],
      "type": "SCALAR",
      "bufferView": 3,
      "byteOffset": 0
    },
    {
      "name": "mlyn_Circle-Mesh_0_positions",
      "componentType": 5126,
      "count": 4290,
      "min": [
        -2.747654914855957,
        -0.6545040011405945,
        -1.9384490251541138
      ],
      "max": [
        1.9384490251541138,
        8.89444637298584,
        2.6083478927612305
      ],
      "type": "VEC3",
      "bufferView": 0,
      "byteOffset": 9120
    },
    {
      "name": "mlyn_Circle-Mesh_0_normals",
      "componentType": 5126,
      "count": 4290,
      "min": [
        -1,
        -1,
        -1
      ],
      "max": [
        1,
        1,
        1
      ],
      "type": "VEC3",
      "bufferView": 1,
      "byteOffset": 9120
    },
    {
      "name": "mlyn_Circle-Mesh_0_texcoords",
      "componentType": 5126,
      "count": 4290,
      "min": [
        0.0025869999080896378,
        0.003513999981805682
      ],
      "max": [
        0.9866859912872314,
        0.9942589998245239
      ],
      "type": "VEC2",
      "bufferView": 2,
      "byteOffset": 6080
    },
    {
      "name": "mlyn_Circle-Mesh_0_indices",
      "componentType": 5123,
      "count": 7038,
      "min": [
        0
      ],
      "max": [
        4289
      ],
      "type": "SCALAR",
      "bufferView": 3,
      "byteOffset": 2256
    }
  ],
  "asset": {
    "generator": "obj2gltf",
    "version": "2.0"
  },
  "buffers": [
    {
      "name": "windmill",
      "byteLength": 177932,
      "uri": "data:application/octet-stream;base64,"
    }
  ],
  "bufferViews": [
    {
      "name": "bufferView_0",
      "buffer": 0,
      "byteLength": 60600,
      "byteOffset": 0,
      "byteStride": 12,
      "target": 34962
    },
    {
      "name": "bufferView_1",
      "buffer": 0,
      "byteLength": 60600,
      "byteOffset": 60600,
      "byteStride": 12,
      "target": 34962
    },
    {
      "name": "bufferView_2",
      "buffer": 0,
      "byteLength": 40400,
      "byteOffset": 121200,
      "byteStride": 8,
      "target": 34962
    },
    {
      "name": "bufferView_3",
      "buffer": 0,
      "byteLength": 16332,
      "byteOffset": 161600,
      "target": 34963
    }
  ],
  "materials": [
    {
      "name": "Material",
      "pbrMetallicRoughness": {
        "baseColorFactor": [
          0.5,
          0.5,
          0.5,
          1
        ],
        "metallicFactor": 0,
        "roughnessFactor": 1
      },
      "emissiveFactor": [
        0,
        0,
        0
      ],
      "alphaMode": "OPAQUE",
      "doubleSided": false
    },
    {
      "name": "windmill",
      "pbrMetallicRoughness": {
        "baseColorFactor": [
          0.5,
          0.5,
          0.5,
          1
        ],
        "metallicFactor": 0,
        "roughnessFactor": 1
      },
      "emissiveFactor": [
        0,
        0,
        0
      ],
      "alphaMode": "OPAQUE",
      "doubleSided": false
    }
  ],
  "meshes": [
    {
      "name": "lopatky_Circle.003-Mesh",
      "primitives": [
        {
          "attributes": {
            "POSITION": 0,
            "NORMAL": 1,
            "TEXCOORD_0": 2
          },
          "indices": 3,
          "material": 0,
          "mode": 4
        }
      ]
    },
    {
      "name": "mlyn_Circle-Mesh",
      "primitives": [
        {
          "attributes": {
            "POSITION": 4,
            "NORMAL": 5,
            "TEXCOORD_0": 6
          },
          "indices": 7,
          "material": 1,
          "mode": 4
        }
      ]
    }
  ],
  "nodes": [
    {
      "name": "lopatky_Circle.003",
      "mesh": 0
    },
    {
      "name": "mlyn_Circle",
      "mesh": 1
    }
  ],
  "scene": 0,
  "scenes": [
    {
      "nodes": [
        0,
        1
      ]
    }
  ]
}
